<svg xmlns="http://www.w3.org/2000/svg" viewBox="0 0 512 512">
  <rect x="0" y="0" width="512" height="512" rx="100" fill="#2B2013" />

  <g stroke="#C9A24E" stroke-width="3.5" stroke-linecap="round">
    <line x1="256" y1="54" x2="256" y2="84" />
    <line x1="222" y1="60" x2="235" y2="88" />
    <line x1="290" y1="60" x2="277" y2="88" />
    <line x1="196" y1="78" x2="217" y2="100" />
    <line x1="316" y1="78" x2="295" y2="100" />
    <line x1="176" y1="104" x2="204" y2="118" />
    <line x1="336" y1="104" x2="308" y2="118" />
  </g>

  <rect x="244" y="112" width="24" height="60" rx="4" fill="#C9A24E" />
  <rect x="218" y="134" width="76" height="20" rx="4" fill="#C9A24E" />

  <path d="M256,184 L172,150 Q150,141 150,164 L150,214 Q150,235 172,244 L256,278 Z" fill="#F8F3E6" stroke="#C9A24E" stroke-width="5" stroke-linejoin="round" />
  <path d="M256,184 L340,150 Q362,141 362,164 L362,214 Q362,235 340,244 L256,278 Z" fill="#F8F3E6" stroke="#C9A24E" stroke-width="5" stroke-linejoin="round" />
  <rect x="251" y="182" width="10" height="96" fill="#C9A24E" />

  <g stroke="#C9A24E" stroke-width="2" stroke-linecap="round" opacity="0.45">
    <path d="M176,172 L244,198" fill="none" />
    <path d="M176,188 L244,212" fill="none" />
    <path d="M176,204 L244,226" fill="none" />
    <path d="M336,172 L268,198" fill="none" />
    <path d="M336,188 L268,212" fill="none" />
    <path d="M336,204 L268,226" fill="none" />
  </g>

  <path d="M242,278 L270,278 L270,328 L256,315 L242,328 Z" fill="#C9A24E" />

  <text x="256" y="368" text-anchor="middle" font-family="Georgia, 'Times New Roman', serif" font-size="25" letter-spacing="5" fill="#C9A24E">BÍBLIA</text>
  <text x="256" y="412" text-anchor="middle" font-family="Georgia, 'Times New Roman', serif" font-size="42" font-weight="700" letter-spacing="1" fill="#F8F3E6">EXPOSITOR</text>
</svg>
