<svg xmlns="http://www.w3.org/2000/svg" viewBox="0 0 512 512">
  <rect x="0" y="0" width="512" height="512" rx="100" fill="#2B2013" />

  <g stroke="#C9A24E" stroke-width="4.5" stroke-linecap="round">
    <line x1="256" y1="86" x2="256" y2="122" />
    <line x1="214" y1="94" x2="230" y2="128" />
    <line x1="298" y1="94" x2="282" y2="128" />
    <line x1="180" y1="116" x2="206" y2="142" />
    <line x1="332" y1="116" x2="306" y2="142" />
    <line x1="154" y1="148" x2="188" y2="164" />
    <line x1="358" y1="148" x2="324" y2="164" />
  </g>

  <rect x="242" y="150" width="28" height="70" rx="4" fill="#C9A24E" />
  <rect x="212" y="176" width="88" height="24" rx="4" fill="#C9A24E" />

  <path d="M256,222 L152,182 Q126,172 126,198 L126,258 Q126,282 152,292 L256,326 Z" fill="#F8F3E6" stroke="#C9A24E" stroke-width="6" stroke-linejoin="round" />
  <path d="M256,222 L360,182 Q386,172 386,198 L386,258 Q386,282 360,292 L256,326 Z" fill="#F8F3E6" stroke="#C9A24E" stroke-width="6" stroke-linejoin="round" />
  <rect x="250" y="220" width="12" height="106" fill="#C9A24E" />

  <g stroke="#C9A24E" stroke-width="2.5" stroke-linecap="round" opacity="0.45">
    <path d="M156,206 L240,238" fill="none" />
    <path d="M156,226 L240,256" fill="none" />
    <path d="M156,246 L240,274" fill="none" />
    <path d="M356,206 L272,238" fill="none" />
    <path d="M356,226 L272,256" fill="none" />
    <path d="M356,246 L272,274" fill="none" />
  </g>

  <path d="M240,326 L272,326 L272,384 L256,368 L240,384 Z" fill="#C9A24E" />
</svg>
