<svg xmlns="http://www.w3.org/2000/svg" viewBox="0 0 512 512">
  <rect x="0" y="0" width="512" height="512" rx="100" fill="#2B2013" />

  <g stroke="#C9A24E" stroke-width="3.5" stroke-linecap="round">
    <line x1="256" y1="48" x2="256" y2="80" />
    <line x1="224" y1="54" x2="236" y2="84" />
    <line x1="288" y1="54" x2="276" y2="84" />
    <line x1="196" y1="70" x2="216" y2="94" />
    <line x1="316" y1="70" x2="296" y2="94" />
    <line x1="174" y1="94" x2="200" y2="110" />
    <line x1="338" y1="94" x2="312" y2="110" />
  </g>

  <rect x="243" y="104" width="26" height="92" rx="4" fill="#C9A24E" />
  <rect x="216" y="138" width="80" height="24" rx="4" fill="#C9A24E" />

  <path d="M252,208 Q246,196 236,199 Q170,210 138,238 Q170,266 246,278 Q249,246 252,222 Z"
        fill="#F8F3E6" stroke="#C9A24E" stroke-width="7" stroke-linejoin="round" />
  <path d="M260,208 Q266,196 276,199 Q342,210 374,238 Q342,266 266,278 Q263,246 260,222 Z"
        fill="#F8F3E6" stroke="#C9A24E" stroke-width="7" stroke-linejoin="round" />

  <g stroke="#C9A24E" stroke-width="2" stroke-linecap="round" opacity="0.4">
    <path d="M196,230 Q216,226 234,229" fill="none" />
    <path d="M196,242 Q216,239 232,241" fill="none" />
    <path d="M316,230 Q296,226 278,229" fill="none" />
    <path d="M316,242 Q296,239 280,241" fill="none" />
  </g>

  <path d="M243,275 L269,278 L267,344 L256,330 L245,344 Z" fill="#C9A24E" />

  <text x="256" y="332" text-anchor="middle" font-family="Georgia, 'Times New Roman', serif" font-size="25" letter-spacing="5" fill="#C9A24E">BÍBLIA</text>
  <text x="256" y="376" text-anchor="middle" font-family="Georgia, 'Times New Roman', serif" font-size="42" font-weight="700" letter-spacing="1" fill="#F8F3E6">EXPOSITOR</text>
</svg>
