<svg xmlns="http://www.w3.org/2000/svg" viewBox="0 0 512 512">
  <rect x="0" y="0" width="512" height="512" rx="100" fill="#2B2013" />

  <g stroke="#C9A24E" stroke-width="4.5" stroke-linecap="round">
    <line x1="256" y1="70" x2="256" y2="110" />
    <line x1="212" y1="78" x2="228" y2="116" />
    <line x1="300" y1="78" x2="284" y2="116" />
    <line x1="174" y1="102" x2="202" y2="132" />
    <line x1="338" y1="102" x2="310" y2="132" />
    <line x1="144" y1="136" x2="180" y2="156" />
    <line x1="368" y1="136" x2="332" y2="156" />
  </g>

  <rect x="241" y="140" width="30" height="112" rx="5" fill="#C9A24E" />
  <rect x="208" y="180" width="96" height="28" rx="5" fill="#C9A24E" />

  <path d="M250,254 Q242,238 228,242 Q140,256 100,292 Q140,328 240,342 Q245,304 250,272 Z"
        fill="#F8F3E6" stroke="#C9A24E" stroke-width="9" stroke-linejoin="round" />
  <path d="M262,254 Q270,238 284,242 Q372,256 412,292 Q372,328 272,342 Q267,304 262,272 Z"
        fill="#F8F3E6" stroke="#C9A24E" stroke-width="9" stroke-linejoin="round" />

  <g stroke="#C9A24E" stroke-width="2.5" stroke-linecap="round" opacity="0.4">
    <path d="M172,282 Q198,277 222,281" fill="none" />
    <path d="M172,297 Q198,293 220,296" fill="none" />
    <path d="M340,282 Q314,277 290,281" fill="none" />
    <path d="M340,297 Q314,293 292,296" fill="none" />
  </g>

  <path d="M240,338 L272,342 L269,414 L256,398 L242,414 Z" fill="#C9A24E" />
</svg>
