<svg xmlns="http://www.w3.org/2000/svg" viewBox="0 0 512 512">
  <rect x="0" y="0" width="512" height="512" rx="100" fill="#2A1D12" />

  <g stroke="#C9A24E" stroke-width="3.5" stroke-linecap="round">
    <line x1="256" y1="52" x2="256" y2="84" />
    <line x1="222" y1="58" x2="234" y2="88" />
    <line x1="290" y1="58" x2="278" y2="88" />
    <line x1="192" y1="76" x2="212" y2="100" />
    <line x1="320" y1="76" x2="300" y2="100" />
    <line x1="168" y1="102" x2="194" y2="118" />
    <line x1="344" y1="102" x2="318" y2="118" />
    <line x1="150" y1="134" x2="180" y2="142" />
    <line x1="362" y1="134" x2="332" y2="142" />
  </g>

  <path d="M244,198 Q160,206 126,246 Q160,282 244,292 Z" fill="#F6F1E4" stroke="#2A1D12" stroke-width="5" stroke-linejoin="round" />
  <path d="M268,198 Q352,206 386,246 Q352,282 268,292 Z" fill="#F6F1E4" stroke="#2A1D12" stroke-width="5" stroke-linejoin="round" />

  <g stroke="#C9A24E" stroke-width="2.5" stroke-linecap="round" opacity="0.5">
    <path d="M178,236 Q206,230 230,235" fill="none" />
    <path d="M178,250 Q206,246 228,249" fill="none" />
    <path d="M334,236 Q306,230 282,235" fill="none" />
    <path d="M334,250 Q306,246 284,249" fill="none" />
  </g>

  <rect x="247" y="188" width="18" height="106" rx="6" fill="#C9A24E" />
  <rect x="242" y="112" width="28" height="96" rx="4" fill="#C9A24E" />
  <rect x="214" y="142" width="84" height="24" rx="4" fill="#C9A24E" />

  <path d="M243,292 L269,292 L269,360 L256,346 L243,360 Z" fill="#C9A24E" />

  <text x="256" y="336" text-anchor="middle" font-family="Georgia, 'Times New Roman', serif" font-size="26" letter-spacing="4" fill="#C9A24E">BÍBLIA</text>
  <text x="256" y="380" text-anchor="middle" font-family="Georgia, 'Times New Roman', serif" font-size="40" font-weight="700" letter-spacing="1" fill="#F6F1E4">EXPOSITOR</text>
</svg>
