<svg xmlns="http://www.w3.org/2000/svg" viewBox="0 0 512 512">
  <rect x="0" y="0" width="512" height="512" rx="100" fill="#2B2013" />

  <g stroke="#C9A24E" stroke-width="3.5" stroke-linecap="round">
    <line x1="256" y1="54" x2="256" y2="84" />
    <line x1="222" y1="60" x2="235" y2="88" />
    <line x1="290" y1="60" x2="277" y2="88" />
    <line x1="196" y1="78" x2="217" y2="100" />
    <line x1="316" y1="78" x2="295" y2="100" />
    <line x1="176" y1="104" x2="204" y2="118" />
    <line x1="336" y1="104" x2="308" y2="118" />
  </g>

  <rect x="244" y="112" width="24" height="60" rx="4" fill="#C9A24E" />
  <rect x="218" y="134" width="76" height="20" rx="4" fill="#C9A24E" />

  <path d="M148,268 L148,240 Q148,224 172,214 L248,188 L248,258 L172,286 Q148,294 148,268 Z" fill="#F8F3E6" stroke="#C9A24E" stroke-width="5" stroke-linejoin="round" />
  <path d="M364,268 L364,240 Q364,224 340,214 L264,188 L264,258 L340,286 Q364,294 364,268 Z" fill="#F8F3E6" stroke="#C9A24E" stroke-width="5" stroke-linejoin="round" />
  <rect x="251" y="186" width="10" height="74" fill="#C9A24E" />

  <g stroke="#C9A24E" stroke-width="2" stroke-linecap="round" opacity="0.45">
    <path d="M172,228 L232,206" fill="none" />
    <path d="M172,244 L232,224" fill="none" />
    <path d="M172,260 L232,242" fill="none" />
    <path d="M340,228 L280,206" fill="none" />
    <path d="M340,244 L280,224" fill="none" />
    <path d="M340,260 L280,242" fill="none" />
  </g>

  <path d="M242,286 L270,286 L270,336 L256,323 L242,336 Z" fill="#C9A24E" />

  <text x="256" y="368" text-anchor="middle" font-family="Georgia, 'Times New Roman', serif" font-size="25" letter-spacing="5" fill="#C9A24E">BÍBLIA</text>
  <text x="256" y="412" text-anchor="middle" font-family="Georgia, 'Times New Roman', serif" font-size="42" font-weight="700" letter-spacing="1" fill="#F8F3E6">EXPOSITOR</text>
</svg>
