<svg xmlns="http://www.w3.org/2000/svg" viewBox="0 0 512 512">
  <rect x="0" y="0" width="512" height="512" fill="#2B2013" />

  <g stroke="#C9A24E" stroke-width="4" stroke-linecap="round">
    <line x1="256" y1="132" x2="256" y2="162" />
    <line x1="220" y1="139" x2="234" y2="168" />
    <line x1="292" y1="139" x2="278" y2="168" />
    <line x1="192" y1="158" x2="215" y2="180" />
    <line x1="320" y1="158" x2="297" y2="180" />
    <line x1="170" y1="184" x2="200" y2="198" />
    <line x1="342" y1="184" x2="312" y2="198" />
  </g>

  <rect x="245" y="196" width="22" height="52" rx="4" fill="#C9A24E" />
  <rect x="222" y="216" width="68" height="18" rx="4" fill="#C9A24E" />

  <path d="M256,266 L188,240 Q170,233 170,251 L170,291 Q170,308 188,315 L256,342 Z" fill="#F8F3E6" stroke="#C9A24E" stroke-width="5" stroke-linejoin="round" />
  <path d="M256,266 L324,240 Q342,233 342,251 L342,291 Q342,308 324,315 L256,342 Z" fill="#F8F3E6" stroke="#C9A24E" stroke-width="5" stroke-linejoin="round" />
  <rect x="251" y="264" width="8" height="80" fill="#C9A24E" />

  <g stroke="#C9A24E" stroke-width="2" stroke-linecap="round" opacity="0.4">
    <path d="M190,262 L238,282" fill="none" />
    <path d="M190,276 L238,294" fill="none" />
    <path d="M322,262 L274,282" fill="none" />
    <path d="M322,276 L274,294" fill="none" />
  </g>

  <path d="M245,342 L267,342 L267,382 L256,372 L245,382 Z" fill="#C9A24E" />
</svg>
