<svg xmlns="http://www.w3.org/2000/svg" viewBox="0 0 512 512">
  <rect x="0" y="0" width="512" height="512" fill="#2A1D12" />

  <g stroke="#C9A24E" stroke-width="4" stroke-linecap="round">
    <line x1="256" y1="118" x2="256" y2="150" />
    <line x1="221" y1="125" x2="235" y2="156" />
    <line x1="291" y1="125" x2="277" y2="156" />
    <line x1="193" y1="148" x2="216" y2="170" />
    <line x1="319" y1="148" x2="296" y2="170" />
    <line x1="172" y1="178" x2="202" y2="190" />
    <line x1="340" y1="178" x2="310" y2="190" />
  </g>

  <path d="M250,272 Q170,280 138,316 Q170,350 250,360 Z" fill="#F6F1E4" stroke="#2A1D12" stroke-width="5" stroke-linejoin="round" />
  <path d="M262,272 Q342,280 374,316 Q342,350 262,360 Z" fill="#F6F1E4" stroke="#2A1D12" stroke-width="5" stroke-linejoin="round" />

  <g stroke="#C9A24E" stroke-width="2.5" stroke-linecap="round" opacity="0.5">
    <path d="M188,308 Q214,302 236,307" fill="none" />
    <path d="M188,321 Q214,317 234,320" fill="none" />
    <path d="M324,308 Q298,302 276,307" fill="none" />
    <path d="M324,321 Q298,317 278,320" fill="none" />
  </g>

  <rect x="247" y="264" width="16" height="98" rx="6" fill="#C9A24E" />
  <rect x="243" y="184" width="26" height="88" rx="4" fill="#C9A24E" />
  <rect x="216" y="212" width="80" height="22" rx="4" fill="#C9A24E" />

  <path d="M243,360 L269,360 L269,406 L256,393 L243,406 Z" fill="#C9A24E" />
</svg>
