<svg xmlns="http://www.w3.org/2000/svg" viewBox="0 0 512 512">
  <rect x="0" y="0" width="512" height="512" fill="#3B2A1A" />

  <g stroke="#C89D3C" stroke-width="4" stroke-linecap="round" opacity="0.85">
    <line x1="256" y1="120" x2="256" y2="146" />
    <line x1="224" y1="129" x2="236" y2="152" />
    <line x1="288" y1="129" x2="276" y2="152" />
    <line x1="198" y1="148" x2="217" y2="166" />
    <line x1="314" y1="148" x2="295" y2="166" />
    <line x1="180" y1="174" x2="205" y2="185" />
    <line x1="332" y1="174" x2="307" y2="185" />
  </g>

  <path d="M250,258 Q172,265 140,302 Q172,336 250,344 Z" fill="#F4EFE4" stroke="#3B2A1A" stroke-width="6" stroke-linejoin="round" />
  <path d="M262,258 Q340,265 372,302 Q340,336 262,344 Z" fill="#F4EFE4" stroke="#3B2A1A" stroke-width="6" stroke-linejoin="round" />

  <g stroke="#C89D3C" stroke-width="3" stroke-linecap="round" opacity="0.55">
    <path d="M182,292 Q210,286 234,290" fill="none" />
    <path d="M182,306 Q210,302 234,304" fill="none" />
    <path d="M330,292 Q302,286 278,290" fill="none" />
    <path d="M330,306 Q302,302 278,304" fill="none" />
  </g>

  <rect x="247" y="244" width="18" height="108" rx="7" fill="#C89D3C" />

  <rect x="244" y="176" width="24" height="100" rx="4" fill="#C89D3C" />
  <rect x="216" y="208" width="80" height="24" rx="4" fill="#C89D3C" />

  <path d="M244,344 L268,344 L268,388 L256,373 L244,388 Z" fill="#C89D3C" />
</svg>
