<svg xmlns="http://www.w3.org/2000/svg" viewBox="0 0 512 512">
  <rect x="0" y="0" width="512" height="512" rx="100" fill="#2B2013" />

  <g stroke="#C9A24E" stroke-width="4.5" stroke-linecap="round">
    <line x1="256" y1="86" x2="256" y2="122" />
    <line x1="214" y1="94" x2="230" y2="128" />
    <line x1="298" y1="94" x2="282" y2="128" />
    <line x1="180" y1="116" x2="206" y2="142" />
    <line x1="332" y1="116" x2="306" y2="142" />
    <line x1="154" y1="148" x2="188" y2="164" />
    <line x1="358" y1="148" x2="324" y2="164" />
  </g>

  <rect x="242" y="150" width="28" height="70" rx="4" fill="#C9A24E" />
  <rect x="212" y="176" width="88" height="24" rx="4" fill="#C9A24E" />

  <path d="M120,336 L120,300 Q120,280 150,268 L246,236 L246,320 L150,352 Q120,362 120,336 Z" fill="#F8F3E6" stroke="#C9A24E" stroke-width="6" stroke-linejoin="round" />
  <path d="M392,336 L392,300 Q392,280 362,268 L266,236 L266,320 L362,352 Q392,362 392,336 Z" fill="#F8F3E6" stroke="#C9A24E" stroke-width="6" stroke-linejoin="round" />
  <rect x="250" y="234" width="12" height="90" fill="#C9A24E" />

  <g stroke="#C9A24E" stroke-width="2.5" stroke-linecap="round" opacity="0.45">
    <path d="M150,286 L228,258" fill="none" />
    <path d="M150,306 L228,280" fill="none" />
    <path d="M150,326 L228,302" fill="none" />
    <path d="M362,286 L284,258" fill="none" />
    <path d="M362,306 L284,280" fill="none" />
    <path d="M362,326 L284,302" fill="none" />
  </g>

  <path d="M240,352 L272,352 L272,410 L256,394 L240,410 Z" fill="#C9A24E" />
</svg>
