<svg xmlns="http://www.w3.org/2000/svg" viewBox="0 0 512 512">
  <rect x="0" y="0" width="512" height="512" rx="100" fill="#2A1D12" />

  <g stroke="#C9A24E" stroke-width="4.5" stroke-linecap="round">
    <line x1="256" y1="76" x2="256" y2="116" />
    <line x1="210" y1="84" x2="226" y2="122" />
    <line x1="302" y1="84" x2="286" y2="122" />
    <line x1="170" y1="112" x2="198" y2="140" />
    <line x1="342" y1="112" x2="314" y2="140" />
    <line x1="140" y1="150" x2="176" y2="164" />
    <line x1="372" y1="150" x2="336" y2="164" />
  </g>

  <path d="M248,240 Q146,250 106,300 Q146,344 248,356 Z" fill="#F6F1E4" stroke="#2A1D12" stroke-width="6" stroke-linejoin="round" />
  <path d="M264,240 Q366,250 406,300 Q366,344 264,356 Z" fill="#F6F1E4" stroke="#2A1D12" stroke-width="6" stroke-linejoin="round" />

  <g stroke="#C9A24E" stroke-width="3" stroke-linecap="round" opacity="0.5">
    <path d="M164,288 Q198,281 226,287" fill="none" />
    <path d="M164,305 Q198,300 224,304" fill="none" />
    <path d="M348,288 Q314,281 286,287" fill="none" />
    <path d="M348,305 Q314,300 288,304" fill="none" />
  </g>

  <rect x="247" y="228" width="18" height="130" rx="7" fill="#C9A24E" />
  <rect x="241" y="132" width="30" height="118" rx="5" fill="#C9A24E" />
  <rect x="208" y="168" width="96" height="26" rx="5" fill="#C9A24E" />

  <path d="M240,356 L272,356 L272,414 L256,398 L240,414 Z" fill="#C9A24E" />
</svg>
